<?xml version="1.0" encoding="utf-8"?>
<!-- Generator: Adobe Illustrator 21.1.0, SVG Export Plug-In . SVG Version: 6.00 Build 0)  -->
<svg version="1.1" xmlns="http://www.w3.org/2000/svg" xmlns:xlink="http://www.w3.org/1999/xlink" x="0px" y="0px"
	 viewBox="0 0 2400 1200" style="enable-background:new 0 0 2400 1200;" xml:space="preserve">
<style type="text/css">
	.st0{display:none;}
	.st1{display:inline;fill:#1E1E1E;}
	.st2{opacity:0.1;}
	.st3{fill:#D6FF00;}
	.st4{display:none;opacity:0.15;}
	.st5{display:inline;fill:#D6FF00;}
	.st6{display:none;opacity:0.2;}
	.st7{display:none;opacity:0.25;}
</style>
<g id="Layer_2" class="st0">
	<rect x="-43" y="-17" class="st1" width="2476" height="1236"/>
</g>
<g id="Layer_1">
	<g id="_x32_0_1_" class="st2">
		<rect x="380.3" y="226.6" class="st3" width="3" height="3"/>
		<rect x="529.1" y="226.6" class="st3" width="3" height="3"/>
		<rect x="677.8" y="226.6" class="st3" width="3" height="3"/>
		<rect x="826.6" y="226.6" class="st3" width="3" height="3"/>
		<rect x="975.4" y="226.6" class="st3" width="3" height="3"/>
		<rect x="1124.1" y="226.6" class="st3" width="3" height="3"/>
		<rect x="1272.9" y="226.6" class="st3" width="3" height="3"/>
		<rect x="1421.7" y="226.6" class="st3" width="3" height="3"/>
		<rect x="1570.4" y="226.6" class="st3" width="3" height="3"/>
		<rect x="1719.2" y="226.6" class="st3" width="3" height="3"/>
		<rect x="1867.9" y="226.6" class="st3" width="3" height="3"/>
		<rect x="2016.7" y="226.6" class="st3" width="3" height="3"/>
		<rect x="380.3" y="375.4" class="st3" width="3" height="3"/>
		<rect x="529.1" y="375.4" class="st3" width="3" height="3"/>
		<rect x="677.8" y="375.4" class="st3" width="3" height="3"/>
		<rect x="826.6" y="375.4" class="st3" width="3" height="3"/>
		<rect x="975.4" y="375.4" class="st3" width="3" height="3"/>
		<rect x="1124.1" y="375.4" class="st3" width="3" height="3"/>
		<rect x="1272.9" y="375.4" class="st3" width="3" height="3"/>
		<rect x="1421.7" y="375.4" class="st3" width="3" height="3"/>
		<rect x="1570.4" y="375.4" class="st3" width="3" height="3"/>
		<rect x="1719.2" y="375.4" class="st3" width="3" height="3"/>
		<rect x="1867.9" y="375.4" class="st3" width="3" height="3"/>
		<rect x="2016.7" y="375.4" class="st3" width="3" height="3"/>
		<rect x="380.3" y="524.1" class="st3" width="3" height="3"/>
		<rect x="529.1" y="524.1" class="st3" width="3" height="3"/>
		<rect x="677.8" y="524.1" class="st3" width="3" height="3"/>
		<rect x="826.6" y="524.1" class="st3" width="3" height="3"/>
		<rect x="975.4" y="524.1" class="st3" width="3" height="3"/>
		<rect x="1124.1" y="524.1" class="st3" width="3" height="3"/>
		<rect x="1272.9" y="524.1" class="st3" width="3" height="3"/>
		<rect x="1421.7" y="524.1" class="st3" width="3" height="3"/>
		<rect x="1570.4" y="524.1" class="st3" width="3" height="3"/>
		<rect x="1719.2" y="524.1" class="st3" width="3" height="3"/>
		<rect x="1867.9" y="524.1" class="st3" width="3" height="3"/>
		<rect x="2016.7" y="524.1" class="st3" width="3" height="3"/>
		<rect x="380.3" y="672.9" class="st3" width="3" height="3"/>
		<rect x="529.1" y="672.9" class="st3" width="3" height="3"/>
		<rect x="677.8" y="672.9" class="st3" width="3" height="3"/>
		<rect x="826.6" y="672.9" class="st3" width="3" height="3"/>
		<rect x="975.4" y="672.9" class="st3" width="3" height="3"/>
		<rect x="1124.1" y="672.9" class="st3" width="3" height="3"/>
		<rect x="1272.9" y="672.9" class="st3" width="3" height="3"/>
		<rect x="1421.7" y="672.9" class="st3" width="3" height="3"/>
		<rect x="1570.4" y="672.9" class="st3" width="3" height="3"/>
		<rect x="1719.2" y="672.9" class="st3" width="3" height="3"/>
		<rect x="1867.9" y="672.9" class="st3" width="3" height="3"/>
		<rect x="2016.7" y="672.9" class="st3" width="3" height="3"/>
		<rect x="380.3" y="821.7" class="st3" width="3" height="3"/>
		<rect x="529.1" y="821.7" class="st3" width="3" height="3"/>
		<rect x="677.8" y="821.7" class="st3" width="3" height="3"/>
		<rect x="826.6" y="821.7" class="st3" width="3" height="3"/>
		<rect x="975.4" y="821.7" class="st3" width="3" height="3"/>
		<rect x="1124.1" y="821.7" class="st3" width="3" height="3"/>
		<rect x="1272.9" y="821.7" class="st3" width="3" height="3"/>
		<rect x="1421.7" y="821.7" class="st3" width="3" height="3"/>
		<rect x="1570.4" y="821.7" class="st3" width="3" height="3"/>
		<rect x="1719.2" y="821.7" class="st3" width="3" height="3"/>
		<rect x="1867.9" y="821.7" class="st3" width="3" height="3"/>
		<rect x="2016.7" y="821.7" class="st3" width="3" height="3"/>
		<rect x="380.3" y="970.4" class="st3" width="3" height="3"/>
		<rect x="529.1" y="970.4" class="st3" width="3" height="3"/>
		<rect x="677.8" y="970.4" class="st3" width="3" height="3"/>
		<rect x="826.6" y="970.4" class="st3" width="3" height="3"/>
		<rect x="975.4" y="970.4" class="st3" width="3" height="3"/>
		<rect x="1124.1" y="970.4" class="st3" width="3" height="3"/>
		<rect x="1272.9" y="970.4" class="st3" width="3" height="3"/>
		<rect x="1421.7" y="970.4" class="st3" width="3" height="3"/>
		<rect x="1570.4" y="970.4" class="st3" width="3" height="3"/>
		<rect x="1719.2" y="970.4" class="st3" width="3" height="3"/>
		<rect x="1867.9" y="970.4" class="st3" width="3" height="3"/>
		<rect x="2016.7" y="970.4" class="st3" width="3" height="3"/>
	</g>
	<g id="_x33_0" class="st4">
		<rect x="288.1" y="184.6" class="st5" width="3.3" height="3.3"/>
		<rect x="453.6" y="184.6" class="st5" width="3.3" height="3.3"/>
		<rect x="619.1" y="184.6" class="st5" width="3.3" height="3.3"/>
		<rect x="784.6" y="184.6" class="st5" width="3.3" height="3.3"/>
		<rect x="950.1" y="184.6" class="st5" width="3.3" height="3.3"/>
		<rect x="1115.6" y="184.6" class="st5" width="3.3" height="3.3"/>
		<rect x="1281.1" y="184.6" class="st5" width="3.3" height="3.3"/>
		<rect x="1446.6" y="184.6" class="st5" width="3.3" height="3.3"/>
		<rect x="1612.1" y="184.6" class="st5" width="3.3" height="3.3"/>
		<rect x="1777.6" y="184.6" class="st5" width="3.3" height="3.3"/>
		<rect x="1943.1" y="184.6" class="st5" width="3.3" height="3.3"/>
		<rect x="2108.6" y="184.6" class="st5" width="3.3" height="3.3"/>
		<rect x="288.1" y="350.1" class="st5" width="3.3" height="3.3"/>
		<rect x="453.6" y="350.1" class="st5" width="3.3" height="3.3"/>
		<rect x="619.1" y="350.1" class="st5" width="3.3" height="3.3"/>
		<rect x="784.6" y="350.1" class="st5" width="3.3" height="3.3"/>
		<rect x="950.1" y="350.1" class="st5" width="3.3" height="3.3"/>
		<rect x="1115.6" y="350.1" class="st5" width="3.3" height="3.3"/>
		<rect x="1281.1" y="350.1" class="st5" width="3.3" height="3.3"/>
		<rect x="1446.6" y="350.1" class="st5" width="3.3" height="3.3"/>
		<rect x="1612.1" y="350.1" class="st5" width="3.3" height="3.3"/>
		<rect x="1777.6" y="350.1" class="st5" width="3.3" height="3.3"/>
		<rect x="1943.1" y="350.1" class="st5" width="3.3" height="3.3"/>
		<rect x="2108.6" y="350.1" class="st5" width="3.3" height="3.3"/>
		<rect x="288.1" y="515.6" class="st5" width="3.3" height="3.3"/>
		<rect x="453.6" y="515.6" class="st5" width="3.3" height="3.3"/>
		<rect x="619.1" y="515.6" class="st5" width="3.3" height="3.3"/>
		<rect x="784.6" y="515.6" class="st5" width="3.3" height="3.3"/>
		<rect x="950.1" y="515.6" class="st5" width="3.3" height="3.3"/>
		<rect x="1115.6" y="515.6" class="st5" width="3.3" height="3.3"/>
		<rect x="1281.1" y="515.6" class="st5" width="3.3" height="3.3"/>
		<rect x="1446.6" y="515.6" class="st5" width="3.3" height="3.3"/>
		<rect x="1612.1" y="515.6" class="st5" width="3.3" height="3.3"/>
		<rect x="1777.6" y="515.6" class="st5" width="3.3" height="3.3"/>
		<rect x="1943.1" y="515.6" class="st5" width="3.3" height="3.3"/>
		<rect x="2108.6" y="515.6" class="st5" width="3.3" height="3.3"/>
		<rect x="288.1" y="681.1" class="st5" width="3.3" height="3.3"/>
		<rect x="453.6" y="681.1" class="st5" width="3.3" height="3.3"/>
		<rect x="619.1" y="681.1" class="st5" width="3.3" height="3.3"/>
		<rect x="784.6" y="681.1" class="st5" width="3.3" height="3.3"/>
		<rect x="950.1" y="681.1" class="st5" width="3.3" height="3.3"/>
		<rect x="1115.6" y="681.1" class="st5" width="3.3" height="3.3"/>
		<rect x="1281.1" y="681.1" class="st5" width="3.3" height="3.3"/>
		<rect x="1446.6" y="681.1" class="st5" width="3.3" height="3.3"/>
		<rect x="1612.1" y="681.1" class="st5" width="3.3" height="3.3"/>
		<rect x="1777.6" y="681.1" class="st5" width="3.3" height="3.3"/>
		<rect x="1943.1" y="681.1" class="st5" width="3.3" height="3.3"/>
		<rect x="2108.6" y="681.1" class="st5" width="3.3" height="3.3"/>
		<rect x="288.1" y="846.6" class="st5" width="3.3" height="3.3"/>
		<rect x="453.6" y="846.6" class="st5" width="3.3" height="3.3"/>
		<rect x="619.1" y="846.6" class="st5" width="3.3" height="3.3"/>
		<rect x="784.6" y="846.6" class="st5" width="3.3" height="3.3"/>
		<rect x="950.1" y="846.6" class="st5" width="3.3" height="3.3"/>
		<rect x="1115.6" y="846.6" class="st5" width="3.3" height="3.3"/>
		<rect x="1281.1" y="846.6" class="st5" width="3.3" height="3.3"/>
		<rect x="1446.6" y="846.6" class="st5" width="3.3" height="3.3"/>
		<rect x="1612.1" y="846.6" class="st5" width="3.3" height="3.3"/>
		<rect x="1777.6" y="846.6" class="st5" width="3.3" height="3.3"/>
		<rect x="1943.1" y="846.6" class="st5" width="3.3" height="3.3"/>
		<rect x="2108.6" y="846.6" class="st5" width="3.3" height="3.3"/>
		<rect x="288.1" y="1012.1" class="st5" width="3.3" height="3.3"/>
		<rect x="453.6" y="1012.1" class="st5" width="3.3" height="3.3"/>
		<rect x="619.1" y="1012.1" class="st5" width="3.3" height="3.3"/>
		<rect x="784.6" y="1012.1" class="st5" width="3.3" height="3.3"/>
		<rect x="950.1" y="1012.1" class="st5" width="3.3" height="3.3"/>
		<rect x="1115.6" y="1012.1" class="st5" width="3.3" height="3.3"/>
		<rect x="1281.1" y="1012.1" class="st5" width="3.3" height="3.3"/>
		<rect x="1446.6" y="1012.1" class="st5" width="3.3" height="3.3"/>
		<rect x="1612.1" y="1012.1" class="st5" width="3.3" height="3.3"/>
		<rect x="1777.6" y="1012.1" class="st5" width="3.3" height="3.3"/>
		<rect x="1943.1" y="1012.1" class="st5" width="3.3" height="3.3"/>
		<rect x="2108.6" y="1012.1" class="st5" width="3.3" height="3.3"/>
	</g>
	<g id="_x34_0_1_" class="st6">
		<rect x="182.8" y="136.6" class="st5" width="3.7" height="3.7"/>
		<rect x="367.4" y="136.6" class="st5" width="3.7" height="3.7"/>
		<rect x="552" y="136.6" class="st5" width="3.7" height="3.7"/>
		<rect x="736.6" y="136.6" class="st5" width="3.7" height="3.7"/>
		<rect x="921.2" y="136.6" class="st5" width="3.7" height="3.7"/>
		<rect x="1105.8" y="136.6" class="st5" width="3.7" height="3.7"/>
		<rect x="1290.5" y="136.6" class="st5" width="3.7" height="3.7"/>
		<rect x="1475.1" y="136.6" class="st5" width="3.7" height="3.7"/>
		<rect x="1659.7" y="136.6" class="st5" width="3.7" height="3.7"/>
		<rect x="1844.3" y="136.6" class="st5" width="3.7" height="3.7"/>
		<rect x="2028.9" y="136.6" class="st5" width="3.7" height="3.7"/>
		<rect x="2213.5" y="136.6" class="st5" width="3.7" height="3.7"/>
		<rect x="182.8" y="321.2" class="st5" width="3.7" height="3.7"/>
		<rect x="367.4" y="321.2" class="st5" width="3.7" height="3.7"/>
		<rect x="552" y="321.2" class="st5" width="3.7" height="3.7"/>
		<rect x="736.6" y="321.2" class="st5" width="3.7" height="3.7"/>
		<rect x="921.2" y="321.2" class="st5" width="3.7" height="3.7"/>
		<rect x="1105.8" y="321.2" class="st5" width="3.7" height="3.7"/>
		<rect x="1290.5" y="321.2" class="st5" width="3.7" height="3.7"/>
		<rect x="1475.1" y="321.2" class="st5" width="3.7" height="3.7"/>
		<rect x="1659.7" y="321.2" class="st5" width="3.7" height="3.7"/>
		<rect x="1844.3" y="321.2" class="st5" width="3.7" height="3.7"/>
		<rect x="2028.9" y="321.2" class="st5" width="3.7" height="3.7"/>
		<rect x="2213.5" y="321.2" class="st5" width="3.7" height="3.7"/>
		<rect x="182.8" y="505.8" class="st5" width="3.7" height="3.7"/>
		<rect x="367.4" y="505.8" class="st5" width="3.7" height="3.7"/>
		<rect x="552" y="505.8" class="st5" width="3.7" height="3.7"/>
		<rect x="736.6" y="505.8" class="st5" width="3.7" height="3.7"/>
		<rect x="921.2" y="505.8" class="st5" width="3.7" height="3.7"/>
		<rect x="1105.8" y="505.8" class="st5" width="3.7" height="3.7"/>
		<rect x="1290.5" y="505.8" class="st5" width="3.7" height="3.7"/>
		<rect x="1475.1" y="505.8" class="st5" width="3.7" height="3.7"/>
		<rect x="1659.7" y="505.8" class="st5" width="3.7" height="3.7"/>
		<rect x="1844.3" y="505.8" class="st5" width="3.7" height="3.7"/>
		<rect x="2028.9" y="505.8" class="st5" width="3.7" height="3.7"/>
		<rect x="2213.5" y="505.8" class="st5" width="3.7" height="3.7"/>
		<rect x="182.8" y="690.5" class="st5" width="3.7" height="3.7"/>
		<rect x="367.4" y="690.5" class="st5" width="3.7" height="3.7"/>
		<rect x="552" y="690.5" class="st5" width="3.7" height="3.7"/>
		<rect x="736.6" y="690.5" class="st5" width="3.7" height="3.7"/>
		<rect x="921.2" y="690.5" class="st5" width="3.7" height="3.7"/>
		<rect x="1105.8" y="690.5" class="st5" width="3.7" height="3.7"/>
		<rect x="1290.5" y="690.5" class="st5" width="3.7" height="3.7"/>
		<rect x="1475.1" y="690.5" class="st5" width="3.7" height="3.7"/>
		<rect x="1659.7" y="690.5" class="st5" width="3.7" height="3.7"/>
		<rect x="1844.3" y="690.5" class="st5" width="3.7" height="3.7"/>
		<rect x="2028.9" y="690.5" class="st5" width="3.7" height="3.7"/>
		<rect x="2213.5" y="690.5" class="st5" width="3.7" height="3.7"/>
		<rect x="182.8" y="875.1" class="st5" width="3.7" height="3.7"/>
		<rect x="367.4" y="875.1" class="st5" width="3.7" height="3.7"/>
		<rect x="552" y="875.1" class="st5" width="3.7" height="3.7"/>
		<rect x="736.6" y="875.1" class="st5" width="3.7" height="3.7"/>
		<rect x="921.2" y="875.1" class="st5" width="3.7" height="3.7"/>
		<rect x="1105.8" y="875.1" class="st5" width="3.7" height="3.7"/>
		<rect x="1290.5" y="875.1" class="st5" width="3.7" height="3.7"/>
		<rect x="1475.1" y="875.1" class="st5" width="3.7" height="3.7"/>
		<rect x="1659.7" y="875.1" class="st5" width="3.7" height="3.7"/>
		<rect x="1844.3" y="875.1" class="st5" width="3.7" height="3.7"/>
		<rect x="2028.9" y="875.1" class="st5" width="3.7" height="3.7"/>
		<rect x="2213.5" y="875.1" class="st5" width="3.7" height="3.7"/>
		<rect x="182.8" y="1059.7" class="st5" width="3.7" height="3.7"/>
		<rect x="367.4" y="1059.7" class="st5" width="3.7" height="3.7"/>
		<rect x="552" y="1059.7" class="st5" width="3.7" height="3.7"/>
		<rect x="736.6" y="1059.7" class="st5" width="3.7" height="3.7"/>
		<rect x="921.2" y="1059.7" class="st5" width="3.7" height="3.7"/>
		<rect x="1105.8" y="1059.7" class="st5" width="3.7" height="3.7"/>
		<rect x="1290.5" y="1059.7" class="st5" width="3.7" height="3.7"/>
		<rect x="1475.1" y="1059.7" class="st5" width="3.7" height="3.7"/>
		<rect x="1659.7" y="1059.7" class="st5" width="3.7" height="3.7"/>
		<rect x="1844.3" y="1059.7" class="st5" width="3.7" height="3.7"/>
		<rect x="2028.9" y="1059.7" class="st5" width="3.7" height="3.7"/>
		<rect x="2213.5" y="1059.7" class="st5" width="3.7" height="3.7"/>
	</g>
	<g id="_x35_0_1_" class="st7">
		<rect x="97.9" y="98" class="st5" width="4" height="4"/>
		<rect x="297.9" y="98" class="st5" width="4" height="4"/>
		<rect x="498" y="98" class="st5" width="4" height="4"/>
		<rect x="698" y="98" class="st5" width="4" height="4"/>
		<rect x="898" y="98" class="st5" width="4" height="4"/>
		<rect x="1098" y="98" class="st5" width="4" height="4"/>
		<rect x="1298" y="98" class="st5" width="4" height="4"/>
		<rect x="1498" y="98" class="st5" width="4" height="4"/>
		<rect x="1698" y="98" class="st5" width="4" height="4"/>
		<rect x="1898" y="98" class="st5" width="4" height="4"/>
		<rect x="2098.1" y="98" class="st5" width="4" height="4"/>
		<rect x="2298.1" y="98" class="st5" width="4" height="4"/>
		<rect x="97.9" y="298" class="st5" width="4" height="4"/>
		<rect x="297.9" y="298" class="st5" width="4" height="4"/>
		<rect x="498" y="298" class="st5" width="4" height="4"/>
		<rect x="698" y="298" class="st5" width="4" height="4"/>
		<rect x="898" y="298" class="st5" width="4" height="4"/>
		<rect x="1098" y="298" class="st5" width="4" height="4"/>
		<rect x="1298" y="298" class="st5" width="4" height="4"/>
		<rect x="1498" y="298" class="st5" width="4" height="4"/>
		<rect x="1698" y="298" class="st5" width="4" height="4"/>
		<rect x="1898" y="298" class="st5" width="4" height="4"/>
		<rect x="2098.1" y="298" class="st5" width="4" height="4"/>
		<rect x="2298.1" y="298" class="st5" width="4" height="4"/>
		<rect x="97.9" y="498" class="st5" width="4" height="4"/>
		<rect x="297.9" y="498" class="st5" width="4" height="4"/>
		<rect x="498" y="498" class="st5" width="4" height="4"/>
		<rect x="698" y="498" class="st5" width="4" height="4"/>
		<rect x="898" y="498" class="st5" width="4" height="4"/>
		<rect x="1098" y="498" class="st5" width="4" height="4"/>
		<rect x="1298" y="498" class="st5" width="4" height="4"/>
		<rect x="1498" y="498" class="st5" width="4" height="4"/>
		<rect x="1698" y="498" class="st5" width="4" height="4"/>
		<rect x="1898" y="498" class="st5" width="4" height="4"/>
		<rect x="2098.1" y="498" class="st5" width="4" height="4"/>
		<rect x="2298.1" y="498" class="st5" width="4" height="4"/>
		<rect x="97.9" y="698" class="st5" width="4" height="4"/>
		<rect x="297.9" y="698" class="st5" width="4" height="4"/>
		<rect x="498" y="698" class="st5" width="4" height="4"/>
		<rect x="698" y="698" class="st5" width="4" height="4"/>
		<rect x="898" y="698" class="st5" width="4" height="4"/>
		<rect x="1098" y="698" class="st5" width="4" height="4"/>
		<rect x="1298" y="698" class="st5" width="4" height="4"/>
		<rect x="1498" y="698" class="st5" width="4" height="4"/>
		<rect x="1698" y="698" class="st5" width="4" height="4"/>
		<rect x="1898" y="698" class="st5" width="4" height="4"/>
		<rect x="2098.1" y="698" class="st5" width="4" height="4"/>
		<rect x="2298.1" y="698" class="st5" width="4" height="4"/>
		<rect x="97.9" y="898" class="st5" width="4" height="4"/>
		<rect x="297.9" y="898" class="st5" width="4" height="4"/>
		<rect x="498" y="898" class="st5" width="4" height="4"/>
		<rect x="698" y="898" class="st5" width="4" height="4"/>
		<rect x="898" y="898" class="st5" width="4" height="4"/>
		<rect x="1098" y="898" class="st5" width="4" height="4"/>
		<rect x="1298" y="898" class="st5" width="4" height="4"/>
		<rect x="1498" y="898" class="st5" width="4" height="4"/>
		<rect x="1698" y="898" class="st5" width="4" height="4"/>
		<rect x="1898" y="898" class="st5" width="4" height="4"/>
		<rect x="2098.1" y="898" class="st5" width="4" height="4"/>
		<rect x="2298.1" y="898" class="st5" width="4" height="4"/>
		<rect x="97.9" y="1098" class="st5" width="4" height="4"/>
		<rect x="297.9" y="1098" class="st5" width="4" height="4"/>
		<rect x="498" y="1098" class="st5" width="4" height="4"/>
		<rect x="698" y="1098" class="st5" width="4" height="4"/>
		<rect x="898" y="1098" class="st5" width="4" height="4"/>
		<rect x="1098" y="1098" class="st5" width="4" height="4"/>
		<rect x="1298" y="1098" class="st5" width="4" height="4"/>
		<rect x="1498" y="1098" class="st5" width="4" height="4"/>
		<rect x="1698" y="1098" class="st5" width="4" height="4"/>
		<rect x="1898" y="1098" class="st5" width="4" height="4"/>
		<rect x="2098.1" y="1098" class="st5" width="4" height="4"/>
		<rect x="2298.1" y="1098" class="st5" width="4" height="4"/>
	</g>
</g>
</svg>
