<?xml version="1.0" encoding="utf-8"?>
<svg width="30px" version="1.1" id="Layer_1" xmlns="http://www.w3.org/2000/svg" xmlns:xlink="http://www.w3.org/1999/xlink" x="0px" y="0px"
	 viewBox="0 0 512 512" style="enable-background:new 0 0 512 512;" xml:space="preserve">
<style type="text/css">
	.st0{fill:#d6ff00;}
</style>
<g>
	<g>
		<path class="st0" d="M509.8,256.1c0-46.6-37.8-84.4-84.3-84.3L320.9,172c-7.1,0-12.9,5.8-12.9,12.9c0,7.1,5.8,12.9,12.9,12.9
			l104.6-0.2c32.3,0,58.6,26.2,58.6,58.6c-0.1,32.3-26.4,58.7-58.8,58.8L287,315.1c-15.7,0-30.4-6-41.4-17.1
			c-11.1-11.1-17.1-25.8-17.1-41.5c0-7.1-5.8-12.9-12.9-12.9c-7.1,0-12.9,5.8-12.9,12.9c0,22.6,8.7,43.8,24.7,59.7
			s37.1,24.7,59.7,24.6l138.2-0.2C471.7,340.6,509.7,302.6,509.8,256.1L509.8,256.1z"/>
		<path class="st0" d="M188.8,314.3l-102.2,0.2c-15.7,0-30.4-6.1-41.4-17.1C34.1,286.3,28,271.5,28,255.9
			c0.1-32.3,26.4-58.7,58.7-58.7l138.2-0.2c32.3,0,58.6,26.2,58.6,58.6c0,7.1,5.7,12.9,12.9,12.9c7.1,0,12.9-5.8,12.9-12.9
			c0.1-46.6-37.8-84.4-84.3-84.3l-138.2,0.2c-46.6,0.1-84.5,38-84.6,84.6c0,22.6,8.7,43.8,24.6,59.7c15.9,15.9,37.1,24.7,59.7,24.6
			l102.2-0.2c7.1,0,12.9-5.8,12.9-12.9C201.7,320.1,195.9,314.3,188.8,314.3L188.8,314.3z"/>
	</g>
</g>
</svg>
